<?xml version="1.0" encoding="UTF-8" standalone="no"?>
<!DOCTYPE svg PUBLIC "-//W3C//DTD SVG 1.1//EN"
 "http://www.w3.org/Graphics/SVG/1.1/DTD/svg11.dtd">
<!-- Generated by graphviz version 2.44.0 (20200408.0750)
 -->
<!-- Pages: 1 -->
<svg width="397pt" height="196pt"
 viewBox="0.00 0.00 397.29 195.79" xmlns="http://www.w3.org/2000/svg" xmlns:xlink="http://www.w3.org/1999/xlink">
<g id="graph0" class="graph" transform="scale(1 1) rotate(0) translate(4 191.79)">
<polygon fill="white" stroke="transparent" points="-4,4 -4,-191.79 393.29,-191.79 393.29,4 -4,4"/>
<text text-anchor="middle" x="194.64" y="-7.8" font-family="Times,serif" font-size="14.00">Computational Graph of linear</text>
<!-- 4471820512 -->
<g id="node1" class="node">
<title>4471820512</title>
<ellipse fill="none" stroke="black" cx="118.64" cy="-91.9" rx="18.72" ry="18.72"/>
<ellipse fill="none" stroke="black" cx="118.64" cy="-91.9" rx="22.7" ry="22.7"/>
<text text-anchor="middle" x="118.64" y="-88.2" font-family="Times,serif" font-size="14.00">@</text>
</g>
<!-- 4487943760 -->
<g id="node4" class="node">
<title>4487943760</title>
<ellipse fill="none" stroke="black" cx="207.39" cy="-91.9" rx="18" ry="18"/>
<text text-anchor="middle" x="207.39" y="-88.2" font-family="Times,serif" font-size="14.00">0</text>
</g>
<!-- 4471820512&#45;&gt;4487943760 -->
<g id="edge3" class="edge">
<title>4471820512&#45;&gt;4487943760</title>
<path fill="none" stroke="black" d="M141.53,-91.9C152.95,-91.9 167.01,-91.9 179.13,-91.9"/>
<polygon fill="black" stroke="black" points="179.15,-95.4 189.15,-91.9 179.15,-88.4 179.15,-95.4"/>
</g>
<!-- 4471667344 -->
<g id="node2" class="node">
<title>4471667344</title>
<ellipse fill="none" stroke="black" cx="29.9" cy="-130.9" rx="29.8" ry="29.8"/>
<text text-anchor="middle" x="29.9" y="-127.2" font-family="Times,serif" font-size="14.00">None</text>
</g>
<!-- 4471667344&#45;&gt;4471820512 -->
<g id="edge1" class="edge">
<title>4471667344&#45;&gt;4471820512</title>
<path fill="none" stroke="black" d="M57.4,-118.98C67.14,-114.6 78.22,-109.62 88.21,-105.13"/>
<polygon fill="black" stroke="black" points="89.68,-108.31 97.36,-101.01 86.81,-101.92 89.68,-108.31"/>
</g>
<!-- 4471667280 -->
<g id="node3" class="node">
<title>4471667280</title>
<ellipse fill="none" stroke="red" cx="29.9" cy="-52.9" rx="29.8" ry="29.8"/>
<text text-anchor="middle" x="29.9" y="-49.2" font-family="Times,serif" font-size="14.00">None</text>
</g>
<!-- 4471667280&#45;&gt;4471820512 -->
<g id="edge2" class="edge">
<title>4471667280&#45;&gt;4471820512</title>
<path fill="none" stroke="black" d="M57.4,-64.81C67.14,-69.19 78.22,-74.17 88.21,-78.66"/>
<polygon fill="black" stroke="black" points="86.81,-81.87 97.36,-82.78 89.68,-75.49 86.81,-81.87"/>
</g>
<!-- 4470931040 -->
<g id="node5" class="node">
<title>4470931040</title>
<ellipse fill="none" stroke="black" cx="295.29" cy="-124.9" rx="18" ry="18"/>
<ellipse fill="none" stroke="black" cx="295.29" cy="-124.9" rx="22" ry="22"/>
<text text-anchor="middle" x="295.29" y="-121.2" font-family="Times,serif" font-size="14.00">+</text>
</g>
<!-- 4487943760&#45;&gt;4470931040 -->
<g id="edge4" class="edge">
<title>4487943760&#45;&gt;4470931040</title>
<path fill="none" stroke="black" d="M224.55,-98.1C235.96,-102.49 251.59,-108.49 265.16,-113.71"/>
<polygon fill="black" stroke="black" points="263.99,-117.01 274.58,-117.33 266.5,-110.47 263.99,-117.01"/>
</g>
<!-- 4487944144 -->
<g id="node7" class="node">
<title>4487944144</title>
<ellipse fill="none" stroke="black" cx="371.29" cy="-124.9" rx="18" ry="18"/>
<text text-anchor="middle" x="371.29" y="-121.2" font-family="Times,serif" font-size="14.00">1</text>
</g>
<!-- 4470931040&#45;&gt;4487944144 -->
<g id="edge6" class="edge">
<title>4470931040&#45;&gt;4487944144</title>
<path fill="none" stroke="black" d="M317.29,-124.9C325.23,-124.9 334.37,-124.9 342.81,-124.9"/>
<polygon fill="black" stroke="black" points="342.97,-128.4 352.97,-124.9 342.97,-121.4 342.97,-128.4"/>
</g>
<!-- 4471667536 -->
<g id="node6" class="node">
<title>4471667536</title>
<ellipse fill="none" stroke="black" cx="207.39" cy="-157.9" rx="29.8" ry="29.8"/>
<text text-anchor="middle" x="207.39" y="-154.2" font-family="Times,serif" font-size="14.00">None</text>
</g>
<!-- 4471667536&#45;&gt;4470931040 -->
<g id="edge5" class="edge">
<title>4471667536&#45;&gt;4470931040</title>
<path fill="none" stroke="black" d="M235.57,-147.46C244.91,-143.87 255.4,-139.84 264.91,-136.18"/>
<polygon fill="black" stroke="black" points="266.28,-139.4 274.36,-132.55 263.77,-132.87 266.28,-139.4"/>
</g>
</g>
</svg>
