<?xml version="1.0" encoding="UTF-8" standalone="no"?>
<!DOCTYPE svg PUBLIC "-//W3C//DTD SVG 1.1//EN"
 "http://www.w3.org/Graphics/SVG/1.1/DTD/svg11.dtd">
<!-- Generated by graphviz version 2.44.0 (20200408.0750)
 -->
<!-- Pages: 1 -->
<svg width="2124pt" height="410pt"
 viewBox="0.00 0.00 2123.93 409.54" xmlns="http://www.w3.org/2000/svg" xmlns:xlink="http://www.w3.org/1999/xlink">
<g id="graph0" class="graph" transform="scale(1 1) rotate(0) translate(4 405.54)">
<polygon fill="white" stroke="transparent" points="-4,4 -4,-405.54 2119.93,-405.54 2119.93,4 -4,4"/>
<text text-anchor="middle" x="1057.96" y="-7.8" font-family="Times,serif" font-size="14.00">Computational Graph of lstm</text>
<!-- 4396142672 -->
<g id="node1" class="node">
<title>4396142672</title>
<ellipse fill="none" stroke="black" cx="118.64" cy="-91.9" rx="18.72" ry="18.72"/>
<ellipse fill="none" stroke="black" cx="118.64" cy="-91.9" rx="22.7" ry="22.7"/>
<text text-anchor="middle" x="118.64" y="-88.2" font-family="Times,serif" font-size="14.00">@</text>
</g>
<!-- 4411279888 -->
<g id="node4" class="node">
<title>4411279888</title>
<ellipse fill="none" stroke="black" cx="207.39" cy="-91.9" rx="18" ry="18"/>
<text text-anchor="middle" x="207.39" y="-88.2" font-family="Times,serif" font-size="14.00">0</text>
</g>
<!-- 4396142672&#45;&gt;4411279888 -->
<g id="edge3" class="edge">
<title>4396142672&#45;&gt;4411279888</title>
<path fill="none" stroke="black" d="M141.53,-91.9C152.95,-91.9 167.01,-91.9 179.13,-91.9"/>
<polygon fill="black" stroke="black" points="179.15,-95.4 189.15,-91.9 179.15,-88.4 179.15,-95.4"/>
</g>
<!-- 4392234064 -->
<g id="node2" class="node">
<title>4392234064</title>
<ellipse fill="none" stroke="black" cx="29.9" cy="-130.9" rx="29.8" ry="29.8"/>
<text text-anchor="middle" x="29.9" y="-127.2" font-family="Times,serif" font-size="14.00">None</text>
</g>
<!-- 4392234064&#45;&gt;4396142672 -->
<g id="edge1" class="edge">
<title>4392234064&#45;&gt;4396142672</title>
<path fill="none" stroke="black" d="M57.4,-118.98C67.14,-114.6 78.22,-109.62 88.21,-105.13"/>
<polygon fill="black" stroke="black" points="89.68,-108.31 97.36,-101.01 86.81,-101.92 89.68,-108.31"/>
</g>
<!-- 4411279568 -->
<g id="node3" class="node">
<title>4411279568</title>
<ellipse fill="none" stroke="red" cx="29.9" cy="-52.9" rx="29.8" ry="29.8"/>
<text text-anchor="middle" x="29.9" y="-49.2" font-family="Times,serif" font-size="14.00">None</text>
</g>
<!-- 4411279568&#45;&gt;4396142672 -->
<g id="edge2" class="edge">
<title>4411279568&#45;&gt;4396142672</title>
<path fill="none" stroke="black" d="M57.4,-64.81C67.14,-69.19 78.22,-74.17 88.21,-78.66"/>
<polygon fill="black" stroke="black" points="86.81,-81.87 97.36,-82.78 89.68,-75.49 86.81,-81.87"/>
</g>
<!-- 4391837568 -->
<g id="node5" class="node">
<title>4391837568</title>
<ellipse fill="none" stroke="black" cx="295.29" cy="-157.9" rx="18" ry="18"/>
<ellipse fill="none" stroke="black" cx="295.29" cy="-157.9" rx="22" ry="22"/>
<text text-anchor="middle" x="295.29" y="-154.2" font-family="Times,serif" font-size="14.00">+</text>
</g>
<!-- 4411279888&#45;&gt;4391837568 -->
<g id="edge4" class="edge">
<title>4411279888&#45;&gt;4391837568</title>
<path fill="none" stroke="black" d="M222.19,-102.5C234.83,-112.22 253.86,-126.84 269.19,-138.62"/>
<polygon fill="black" stroke="black" points="267.21,-141.5 277.27,-144.82 271.47,-135.95 267.21,-141.5"/>
</g>
<!-- 4411280272 -->
<g id="node7" class="node">
<title>4411280272</title>
<ellipse fill="none" stroke="black" cx="371.29" cy="-169.9" rx="18" ry="18"/>
<text text-anchor="middle" x="371.29" y="-166.2" font-family="Times,serif" font-size="14.00">1</text>
</g>
<!-- 4391837568&#45;&gt;4411280272 -->
<g id="edge6" class="edge">
<title>4391837568&#45;&gt;4411280272</title>
<path fill="none" stroke="black" d="M317.29,-161.3C325.43,-162.62 334.86,-164.15 343.48,-165.55"/>
<polygon fill="black" stroke="black" points="343.02,-169.02 353.45,-167.17 344.14,-162.11 343.02,-169.02"/>
</g>
<!-- 4396120336 -->
<g id="node6" class="node">
<title>4396120336</title>
<ellipse fill="none" stroke="black" cx="207.39" cy="-157.9" rx="29.8" ry="29.8"/>
<text text-anchor="middle" x="207.39" y="-154.2" font-family="Times,serif" font-size="14.00">None</text>
</g>
<!-- 4396120336&#45;&gt;4391837568 -->
<g id="edge5" class="edge">
<title>4396120336&#45;&gt;4391837568</title>
<path fill="none" stroke="black" d="M237.47,-157.9C245.68,-157.9 254.65,-157.9 262.99,-157.9"/>
<polygon fill="black" stroke="black" points="263.11,-161.4 273.11,-157.9 263.11,-154.4 263.11,-161.4"/>
</g>
<!-- 4396123776 -->
<g id="node15" class="node">
<title>4396123776</title>
<ellipse fill="none" stroke="black" cx="447.29" cy="-196.9" rx="18" ry="18"/>
<ellipse fill="none" stroke="black" cx="447.29" cy="-196.9" rx="22" ry="22"/>
<text text-anchor="middle" x="447.29" y="-193.2" font-family="Times,serif" font-size="14.00">+</text>
</g>
<!-- 4411280272&#45;&gt;4396123776 -->
<g id="edge13" class="edge">
<title>4411280272&#45;&gt;4396123776</title>
<path fill="none" stroke="black" d="M388.34,-175.76C396.61,-178.77 406.95,-182.55 416.61,-186.07"/>
<polygon fill="black" stroke="black" points="415.7,-189.46 426.3,-189.6 418.1,-182.89 415.7,-189.46"/>
</g>
<!-- 4396106816 -->
<g id="node8" class="node">
<title>4396106816</title>
<ellipse fill="none" stroke="black" cx="118.64" cy="-301.9" rx="18.72" ry="18.72"/>
<ellipse fill="none" stroke="black" cx="118.64" cy="-301.9" rx="22.7" ry="22.7"/>
<text text-anchor="middle" x="118.64" y="-298.2" font-family="Times,serif" font-size="14.00">@</text>
</g>
<!-- 4411280592 -->
<g id="node11" class="node">
<title>4411280592</title>
<ellipse fill="none" stroke="black" cx="207.39" cy="-301.9" rx="18" ry="18"/>
<text text-anchor="middle" x="207.39" y="-298.2" font-family="Times,serif" font-size="14.00">2</text>
</g>
<!-- 4396106816&#45;&gt;4411280592 -->
<g id="edge9" class="edge">
<title>4396106816&#45;&gt;4411280592</title>
<path fill="none" stroke="black" d="M141.53,-301.9C152.95,-301.9 167.01,-301.9 179.13,-301.9"/>
<polygon fill="black" stroke="black" points="179.15,-305.4 189.15,-301.9 179.15,-298.4 179.15,-305.4"/>
</g>
<!-- 4392234256 -->
<g id="node9" class="node">
<title>4392234256</title>
<ellipse fill="none" stroke="black" cx="29.9" cy="-340.9" rx="29.8" ry="29.8"/>
<text text-anchor="middle" x="29.9" y="-337.2" font-family="Times,serif" font-size="14.00">None</text>
</g>
<!-- 4392234256&#45;&gt;4396106816 -->
<g id="edge7" class="edge">
<title>4392234256&#45;&gt;4396106816</title>
<path fill="none" stroke="black" d="M57.4,-328.98C67.14,-324.6 78.22,-319.62 88.21,-315.13"/>
<polygon fill="black" stroke="black" points="89.68,-318.31 97.36,-311.01 86.81,-311.92 89.68,-318.31"/>
</g>
<!-- 4411279440 -->
<g id="node10" class="node">
<title>4411279440</title>
<ellipse fill="none" stroke="black" cx="29.9" cy="-262.9" rx="29.8" ry="29.8"/>
<text text-anchor="middle" x="29.9" y="-259.2" font-family="Times,serif" font-size="14.00">None</text>
</g>
<!-- 4411279440&#45;&gt;4396106816 -->
<g id="edge8" class="edge">
<title>4411279440&#45;&gt;4396106816</title>
<path fill="none" stroke="black" d="M57.4,-274.81C67.14,-279.19 78.22,-284.17 88.21,-288.66"/>
<polygon fill="black" stroke="black" points="86.81,-291.87 97.36,-292.78 89.68,-285.49 86.81,-291.87"/>
</g>
<!-- 4396109264 -->
<g id="node12" class="node">
<title>4396109264</title>
<ellipse fill="none" stroke="black" cx="295.29" cy="-235.9" rx="18" ry="18"/>
<ellipse fill="none" stroke="black" cx="295.29" cy="-235.9" rx="22" ry="22"/>
<text text-anchor="middle" x="295.29" y="-232.2" font-family="Times,serif" font-size="14.00">+</text>
</g>
<!-- 4411280592&#45;&gt;4396109264 -->
<g id="edge10" class="edge">
<title>4411280592&#45;&gt;4396109264</title>
<path fill="none" stroke="black" d="M222.19,-291.29C234.83,-281.58 253.86,-266.96 269.19,-255.18"/>
<polygon fill="black" stroke="black" points="271.47,-257.84 277.27,-248.97 267.21,-252.29 271.47,-257.84"/>
</g>
<!-- 4411280976 -->
<g id="node14" class="node">
<title>4411280976</title>
<ellipse fill="none" stroke="black" cx="371.29" cy="-229.9" rx="18" ry="18"/>
<text text-anchor="middle" x="371.29" y="-226.2" font-family="Times,serif" font-size="14.00">3</text>
</g>
<!-- 4396109264&#45;&gt;4411280976 -->
<g id="edge12" class="edge">
<title>4396109264&#45;&gt;4411280976</title>
<path fill="none" stroke="black" d="M317.29,-234.19C325.23,-233.55 334.37,-232.81 342.81,-232.13"/>
<polygon fill="black" stroke="black" points="343.29,-235.6 352.97,-231.3 342.72,-228.62 343.29,-235.6"/>
</g>
<!-- 4396120976 -->
<g id="node13" class="node">
<title>4396120976</title>
<ellipse fill="none" stroke="black" cx="207.39" cy="-235.9" rx="29.8" ry="29.8"/>
<text text-anchor="middle" x="207.39" y="-232.2" font-family="Times,serif" font-size="14.00">None</text>
</g>
<!-- 4396120976&#45;&gt;4396109264 -->
<g id="edge11" class="edge">
<title>4396120976&#45;&gt;4396109264</title>
<path fill="none" stroke="black" d="M237.47,-235.9C245.68,-235.9 254.65,-235.9 262.99,-235.9"/>
<polygon fill="black" stroke="black" points="263.11,-239.4 273.11,-235.9 263.11,-232.4 263.11,-239.4"/>
</g>
<!-- 4411280976&#45;&gt;4396123776 -->
<g id="edge14" class="edge">
<title>4411280976&#45;&gt;4396123776</title>
<path fill="none" stroke="black" d="M387.98,-222.9C396.6,-219.06 407.55,-214.17 417.63,-209.67"/>
<polygon fill="black" stroke="black" points="419.22,-212.8 426.93,-205.53 416.37,-206.41 419.22,-212.8"/>
</g>
<!-- 4411281360 -->
<g id="node16" class="node">
<title>4411281360</title>
<ellipse fill="none" stroke="black" cx="523.29" cy="-196.9" rx="18" ry="18"/>
<text text-anchor="middle" x="523.29" y="-193.2" font-family="Times,serif" font-size="14.00">4</text>
</g>
<!-- 4396123776&#45;&gt;4411281360 -->
<g id="edge15" class="edge">
<title>4396123776&#45;&gt;4411281360</title>
<path fill="none" stroke="black" d="M469.29,-196.9C477.23,-196.9 486.37,-196.9 494.81,-196.9"/>
<polygon fill="black" stroke="black" points="494.97,-200.4 504.97,-196.9 494.97,-193.4 494.97,-200.4"/>
</g>
<!-- 4396126080 -->
<g id="node17" class="node">
<title>4396126080</title>
<ellipse fill="none" stroke="black" cx="607.28" cy="-196.9" rx="26" ry="26"/>
<ellipse fill="none" stroke="black" cx="607.28" cy="-196.9" rx="30" ry="30"/>
<text text-anchor="middle" x="607.28" y="-193.2" font-family="Times,serif" font-size="14.00">split</text>
</g>
<!-- 4411281360&#45;&gt;4396126080 -->
<g id="edge16" class="edge">
<title>4411281360&#45;&gt;4396126080</title>
<path fill="none" stroke="black" d="M541.68,-196.9C549.04,-196.9 557.95,-196.9 566.77,-196.9"/>
<polygon fill="black" stroke="black" points="566.98,-200.4 576.98,-196.9 566.98,-193.4 566.98,-200.4"/>
</g>
<!-- 4411322896 -->
<g id="node18" class="node">
<title>4411322896</title>
<ellipse fill="none" stroke="black" cx="691.28" cy="-331.9" rx="18" ry="18"/>
<text text-anchor="middle" x="691.28" y="-328.2" font-family="Times,serif" font-size="14.00">5</text>
</g>
<!-- 4396126080&#45;&gt;4411322896 -->
<g id="edge17" class="edge">
<title>4396126080&#45;&gt;4411322896</title>
<path fill="none" stroke="black" d="M623.71,-222.29C638.61,-246.83 661.03,-283.74 675.66,-307.83"/>
<polygon fill="black" stroke="black" points="672.86,-309.96 681.04,-316.69 678.84,-306.32 672.86,-309.96"/>
</g>
<!-- 4411322960 -->
<g id="node19" class="node">
<title>4411322960</title>
<ellipse fill="none" stroke="black" cx="691.28" cy="-242.9" rx="18" ry="18"/>
<text text-anchor="middle" x="691.28" y="-239.2" font-family="Times,serif" font-size="14.00">5</text>
</g>
<!-- 4396126080&#45;&gt;4411322960 -->
<g id="edge18" class="edge">
<title>4396126080&#45;&gt;4411322960</title>
<path fill="none" stroke="black" d="M633.78,-211.2C644.15,-217.02 656.06,-223.7 666.27,-229.43"/>
<polygon fill="black" stroke="black" points="664.64,-232.53 675.07,-234.37 668.07,-226.42 664.64,-232.53"/>
</g>
<!-- 4411323024 -->
<g id="node20" class="node">
<title>4411323024</title>
<ellipse fill="none" stroke="black" cx="691.28" cy="-169.9" rx="18" ry="18"/>
<text text-anchor="middle" x="691.28" y="-166.2" font-family="Times,serif" font-size="14.00">5</text>
</g>
<!-- 4396126080&#45;&gt;4411323024 -->
<g id="edge19" class="edge">
<title>4396126080&#45;&gt;4411323024</title>
<path fill="none" stroke="black" d="M636.04,-187.76C645.23,-184.73 655.4,-181.38 664.43,-178.41"/>
<polygon fill="black" stroke="black" points="665.63,-181.7 674.03,-175.25 663.44,-175.05 665.63,-181.7"/>
</g>
<!-- 4411323088 -->
<g id="node21" class="node">
<title>4411323088</title>
<ellipse fill="none" stroke="black" cx="691.28" cy="-96.9" rx="18" ry="18"/>
<text text-anchor="middle" x="691.28" y="-93.2" font-family="Times,serif" font-size="14.00">5</text>
</g>
<!-- 4396126080&#45;&gt;4411323088 -->
<g id="edge20" class="edge">
<title>4396126080&#45;&gt;4411323088</title>
<path fill="none" stroke="black" d="M627.3,-173.7C641,-157 659.35,-134.63 672.7,-118.34"/>
<polygon fill="black" stroke="black" points="675.55,-120.39 679.18,-110.44 670.13,-115.95 675.55,-120.39"/>
</g>
<!-- 4396137792 -->
<g id="node22" class="node">
<title>4396137792</title>
<ellipse fill="none" stroke="black" cx="788.93" cy="-357.9" rx="39.78" ry="39.78"/>
<ellipse fill="none" stroke="black" cx="788.93" cy="-357.9" rx="43.79" ry="43.79"/>
<text text-anchor="middle" x="788.93" y="-354.2" font-family="Times,serif" font-size="14.00">sigmoid</text>
</g>
<!-- 4411322896&#45;&gt;4396137792 -->
<g id="edge21" class="edge">
<title>4411322896&#45;&gt;4396137792</title>
<path fill="none" stroke="black" d="M708.94,-336.43C716.81,-338.57 726.67,-341.25 736.73,-343.98"/>
<polygon fill="black" stroke="black" points="735.82,-347.36 746.38,-346.6 737.65,-340.6 735.82,-347.36"/>
</g>
<!-- 4411312032 -->
<g id="node24" class="node">
<title>4411312032</title>
<ellipse fill="none" stroke="black" cx="788.93" cy="-252.9" rx="39.78" ry="39.78"/>
<ellipse fill="none" stroke="black" cx="788.93" cy="-252.9" rx="43.79" ry="43.79"/>
<text text-anchor="middle" x="788.93" y="-249.2" font-family="Times,serif" font-size="14.00">sigmoid</text>
</g>
<!-- 4411322960&#45;&gt;4411312032 -->
<g id="edge23" class="edge">
<title>4411322960&#45;&gt;4411312032</title>
<path fill="none" stroke="black" d="M709.38,-244.69C716.72,-245.45 725.73,-246.39 735.01,-247.36"/>
<polygon fill="black" stroke="black" points="734.79,-250.86 745.1,-248.42 735.52,-243.9 734.79,-250.86"/>
</g>
<!-- 4411312320 -->
<g id="node26" class="node">
<title>4411312320</title>
<ellipse fill="none" stroke="black" cx="788.93" cy="-160.9" rx="26" ry="26"/>
<ellipse fill="none" stroke="black" cx="788.93" cy="-160.9" rx="30" ry="30"/>
<text text-anchor="middle" x="788.93" y="-157.2" font-family="Times,serif" font-size="14.00">tanh</text>
</g>
<!-- 4411323024&#45;&gt;4411312320 -->
<g id="edge25" class="edge">
<title>4411323024&#45;&gt;4411312320</title>
<path fill="none" stroke="black" d="M709.38,-168.29C720.34,-167.26 735.04,-165.87 748.75,-164.58"/>
<polygon fill="black" stroke="black" points="749.34,-168.04 758.97,-163.62 748.69,-161.07 749.34,-168.04"/>
</g>
<!-- 4411312608 -->
<g id="node28" class="node">
<title>4411312608</title>
<ellipse fill="none" stroke="black" cx="788.93" cy="-68.9" rx="39.78" ry="39.78"/>
<ellipse fill="none" stroke="black" cx="788.93" cy="-68.9" rx="43.79" ry="43.79"/>
<text text-anchor="middle" x="788.93" y="-65.2" font-family="Times,serif" font-size="14.00">sigmoid</text>
</g>
<!-- 4411323088&#45;&gt;4411312608 -->
<g id="edge27" class="edge">
<title>4411323088&#45;&gt;4411312608</title>
<path fill="none" stroke="black" d="M708.94,-92.02C716.89,-89.69 726.88,-86.77 737.05,-83.79"/>
<polygon fill="black" stroke="black" points="738.18,-87.11 746.79,-80.94 736.21,-80.39 738.18,-87.11"/>
</g>
<!-- 4411323280 -->
<g id="node23" class="node">
<title>4411323280</title>
<ellipse fill="none" stroke="black" cx="898.47" cy="-301.9" rx="18" ry="18"/>
<text text-anchor="middle" x="898.47" y="-298.2" font-family="Times,serif" font-size="14.00">6</text>
</g>
<!-- 4396137792&#45;&gt;4411323280 -->
<g id="edge22" class="edge">
<title>4396137792&#45;&gt;4411323280</title>
<path fill="none" stroke="black" d="M828.15,-338C843.11,-330.2 859.83,-321.5 873.1,-314.59"/>
<polygon fill="black" stroke="black" points="874.83,-317.63 882.08,-309.91 871.6,-311.43 874.83,-317.63"/>
</g>
<!-- 4411312896 -->
<g id="node30" class="node">
<title>4411312896</title>
<ellipse fill="none" stroke="black" cx="986.37" cy="-301.9" rx="18" ry="18"/>
<ellipse fill="none" stroke="black" cx="986.37" cy="-301.9" rx="22" ry="22"/>
<text text-anchor="middle" x="986.37" y="-298.2" font-family="Times,serif" font-size="14.00">*</text>
</g>
<!-- 4411323280&#45;&gt;4411312896 -->
<g id="edge29" class="edge">
<title>4411323280&#45;&gt;4411312896</title>
<path fill="none" stroke="black" d="M916.85,-301.9C927.5,-301.9 941.44,-301.9 953.97,-301.9"/>
<polygon fill="black" stroke="black" points="954.06,-305.4 964.06,-301.9 954.06,-298.4 954.06,-305.4"/>
</g>
<!-- 4411323536 -->
<g id="node25" class="node">
<title>4411323536</title>
<ellipse fill="none" stroke="black" cx="898.47" cy="-242.9" rx="18" ry="18"/>
<text text-anchor="middle" x="898.47" y="-239.2" font-family="Times,serif" font-size="14.00">7</text>
</g>
<!-- 4411312032&#45;&gt;4411323536 -->
<g id="edge24" class="edge">
<title>4411312032&#45;&gt;4411323536</title>
<path fill="none" stroke="black" d="M832.43,-248.95C845.16,-247.76 858.76,-246.5 870.22,-245.43"/>
<polygon fill="black" stroke="black" points="870.82,-248.89 880.46,-244.48 870.18,-241.92 870.82,-248.89"/>
</g>
<!-- 4411313184 -->
<g id="node33" class="node">
<title>4411313184</title>
<ellipse fill="none" stroke="black" cx="986.37" cy="-237.9" rx="18" ry="18"/>
<ellipse fill="none" stroke="black" cx="986.37" cy="-237.9" rx="22" ry="22"/>
<text text-anchor="middle" x="986.37" y="-234.2" font-family="Times,serif" font-size="14.00">*</text>
</g>
<!-- 4411323536&#45;&gt;4411313184 -->
<g id="edge32" class="edge">
<title>4411323536&#45;&gt;4411313184</title>
<path fill="none" stroke="black" d="M916.85,-241.89C927.58,-241.26 941.64,-240.44 954.24,-239.71"/>
<polygon fill="black" stroke="black" points="954.59,-243.19 964.37,-239.12 954.18,-236.21 954.59,-243.19"/>
</g>
<!-- 4411323792 -->
<g id="node27" class="node">
<title>4411323792</title>
<ellipse fill="none" stroke="black" cx="898.47" cy="-169.9" rx="18" ry="18"/>
<text text-anchor="middle" x="898.47" y="-166.2" font-family="Times,serif" font-size="14.00">8</text>
</g>
<!-- 4411312320&#45;&gt;4411323792 -->
<g id="edge26" class="edge">
<title>4411312320&#45;&gt;4411323792</title>
<path fill="none" stroke="black" d="M819.03,-163.33C835,-164.67 854.68,-166.32 870.33,-167.63"/>
<polygon fill="black" stroke="black" points="870.17,-171.12 880.43,-168.47 870.76,-164.15 870.17,-171.12"/>
</g>
<!-- 4411323792&#45;&gt;4411313184 -->
<g id="edge33" class="edge">
<title>4411323792&#45;&gt;4411313184</title>
<path fill="none" stroke="black" d="M913.27,-180.82C926,-190.9 945.18,-206.09 960.57,-218.26"/>
<polygon fill="black" stroke="black" points="958.64,-221.2 968.66,-224.67 962.99,-215.72 958.64,-221.2"/>
</g>
<!-- 4411323984 -->
<g id="node29" class="node">
<title>4411323984</title>
<ellipse fill="none" stroke="black" cx="1141.37" cy="-125.9" rx="18" ry="18"/>
<text text-anchor="middle" x="1141.37" y="-122.2" font-family="Times,serif" font-size="14.00">9</text>
</g>
<!-- 4411312608&#45;&gt;4411323984 -->
<g id="edge28" class="edge">
<title>4411312608&#45;&gt;4411323984</title>
<path fill="none" stroke="black" d="M832.2,-75.77C905.18,-87.64 1052.83,-111.66 1113.45,-121.52"/>
<polygon fill="black" stroke="black" points="1112.97,-124.99 1123.4,-123.14 1114.09,-118.08 1112.97,-124.99"/>
</g>
<!-- 4411314048 -->
<g id="node39" class="node">
<title>4411314048</title>
<ellipse fill="none" stroke="black" cx="1467.35" cy="-165.9" rx="18" ry="18"/>
<ellipse fill="none" stroke="black" cx="1467.35" cy="-165.9" rx="22" ry="22"/>
<text text-anchor="middle" x="1467.35" y="-162.2" font-family="Times,serif" font-size="14.00">*</text>
</g>
<!-- 4411323984&#45;&gt;4411314048 -->
<g id="edge40" class="edge">
<title>4411323984&#45;&gt;4411314048</title>
<path fill="none" stroke="black" d="M1159.33,-127.99C1211.24,-134.4 1368.46,-153.81 1435.52,-162.09"/>
<polygon fill="black" stroke="black" points="1435.12,-165.57 1445.47,-163.32 1435.98,-158.62 1435.12,-165.57"/>
</g>
<!-- 4411324368 -->
<g id="node32" class="node">
<title>4411324368</title>
<ellipse fill="none" stroke="black" cx="1063.87" cy="-296.9" rx="19.5" ry="19.5"/>
<text text-anchor="middle" x="1063.87" y="-293.2" font-family="Times,serif" font-size="14.00">10</text>
</g>
<!-- 4411312896&#45;&gt;4411324368 -->
<g id="edge31" class="edge">
<title>4411312896&#45;&gt;4411324368</title>
<path fill="none" stroke="black" d="M1008.4,-300.5C1016.4,-299.97 1025.66,-299.36 1034.25,-298.79"/>
<polygon fill="black" stroke="black" points="1034.52,-302.28 1044.26,-298.13 1034.05,-295.3 1034.52,-302.28"/>
</g>
<!-- 4411279504 -->
<g id="node31" class="node">
<title>4411279504</title>
<ellipse fill="none" stroke="black" cx="898.47" cy="-367.9" rx="29.8" ry="29.8"/>
<text text-anchor="middle" x="898.47" y="-364.2" font-family="Times,serif" font-size="14.00">None</text>
</g>
<!-- 4411279504&#45;&gt;4411312896 -->
<g id="edge30" class="edge">
<title>4411279504&#45;&gt;4411312896</title>
<path fill="none" stroke="black" d="M922.94,-349.86C934.54,-340.96 948.53,-330.2 960.33,-321.14"/>
<polygon fill="black" stroke="black" points="962.67,-323.76 968.46,-314.89 958.4,-318.21 962.67,-323.76"/>
</g>
<!-- 4411313472 -->
<g id="node35" class="node">
<title>4411313472</title>
<ellipse fill="none" stroke="black" cx="1141.37" cy="-237.9" rx="18" ry="18"/>
<ellipse fill="none" stroke="black" cx="1141.37" cy="-237.9" rx="22" ry="22"/>
<text text-anchor="middle" x="1141.37" y="-234.2" font-family="Times,serif" font-size="14.00">+</text>
</g>
<!-- 4411324368&#45;&gt;4411313472 -->
<g id="edge35" class="edge">
<title>4411324368&#45;&gt;4411313472</title>
<path fill="none" stroke="black" d="M1079.78,-285.24C1089.95,-277.3 1103.66,-266.59 1115.46,-257.36"/>
<polygon fill="black" stroke="black" points="1117.92,-259.88 1123.64,-250.97 1113.61,-254.37 1117.92,-259.88"/>
</g>
<!-- 4411324752 -->
<g id="node34" class="node">
<title>4411324752</title>
<ellipse fill="none" stroke="black" cx="1063.87" cy="-237.9" rx="19.5" ry="19.5"/>
<text text-anchor="middle" x="1063.87" y="-234.2" font-family="Times,serif" font-size="14.00">11</text>
</g>
<!-- 4411313184&#45;&gt;4411324752 -->
<g id="edge34" class="edge">
<title>4411313184&#45;&gt;4411324752</title>
<path fill="none" stroke="black" d="M1008.4,-237.9C1016.4,-237.9 1025.66,-237.9 1034.25,-237.9"/>
<polygon fill="black" stroke="black" points="1034.26,-241.4 1044.26,-237.9 1034.26,-234.4 1034.26,-241.4"/>
</g>
<!-- 4411324752&#45;&gt;4411313472 -->
<g id="edge36" class="edge">
<title>4411324752&#45;&gt;4411313472</title>
<path fill="none" stroke="black" d="M1083.53,-237.9C1091.23,-237.9 1100.37,-237.9 1109.04,-237.9"/>
<polygon fill="black" stroke="black" points="1109.25,-241.4 1119.25,-237.9 1109.25,-234.4 1109.25,-241.4"/>
</g>
<!-- 4411325136 -->
<g id="node36" class="node">
<title>4411325136</title>
<ellipse fill="none" stroke="black" cx="1218.86" cy="-233.9" rx="19.5" ry="19.5"/>
<text text-anchor="middle" x="1218.86" y="-230.2" font-family="Times,serif" font-size="14.00">12</text>
</g>
<!-- 4411313472&#45;&gt;4411325136 -->
<g id="edge37" class="edge">
<title>4411313472&#45;&gt;4411325136</title>
<path fill="none" stroke="black" d="M1163.4,-236.78C1171.4,-236.36 1180.66,-235.87 1189.25,-235.41"/>
<polygon fill="black" stroke="black" points="1189.46,-238.91 1199.26,-234.88 1189.09,-231.92 1189.46,-238.91"/>
</g>
<!-- 4411313760 -->
<g id="node37" class="node">
<title>4411313760</title>
<ellipse fill="none" stroke="black" cx="1304.36" cy="-208.9" rx="26" ry="26"/>
<ellipse fill="none" stroke="black" cx="1304.36" cy="-208.9" rx="30" ry="30"/>
<text text-anchor="middle" x="1304.36" y="-205.2" font-family="Times,serif" font-size="14.00">tanh</text>
</g>
<!-- 4411325136&#45;&gt;4411313760 -->
<g id="edge38" class="edge">
<title>4411325136&#45;&gt;4411313760</title>
<path fill="none" stroke="black" d="M1237.98,-228.47C1246.1,-226.04 1255.99,-223.08 1265.6,-220.2"/>
<polygon fill="black" stroke="black" points="1266.85,-223.48 1275.42,-217.26 1264.84,-216.78 1266.85,-223.48"/>
</g>
<!-- 4411325392 -->
<g id="node38" class="node">
<title>4411325392</title>
<ellipse fill="none" stroke="black" cx="1389.86" cy="-194.9" rx="19.5" ry="19.5"/>
<text text-anchor="middle" x="1389.86" y="-191.2" font-family="Times,serif" font-size="14.00">13</text>
</g>
<!-- 4411313760&#45;&gt;4411325392 -->
<g id="edge39" class="edge">
<title>4411313760&#45;&gt;4411325392</title>
<path fill="none" stroke="black" d="M1334.09,-204.08C1342.68,-202.64 1352.08,-201.06 1360.63,-199.63"/>
<polygon fill="black" stroke="black" points="1361.25,-203.08 1370.53,-197.97 1360.09,-196.17 1361.25,-203.08"/>
</g>
<!-- 4411325392&#45;&gt;4411314048 -->
<g id="edge41" class="edge">
<title>4411325392&#45;&gt;4411314048</title>
<path fill="none" stroke="black" d="M1408.37,-188.17C1416.93,-184.88 1427.46,-180.84 1437.18,-177.1"/>
<polygon fill="black" stroke="black" points="1438.46,-180.36 1446.54,-173.51 1435.95,-173.83 1438.46,-180.36"/>
</g>
<!-- 4411325776 -->
<g id="node40" class="node">
<title>4411325776</title>
<ellipse fill="none" stroke="black" cx="1555.25" cy="-165.9" rx="19.5" ry="19.5"/>
<text text-anchor="middle" x="1555.25" y="-162.2" font-family="Times,serif" font-size="14.00">14</text>
</g>
<!-- 4411314048&#45;&gt;4411325776 -->
<g id="edge42" class="edge">
<title>4411314048&#45;&gt;4411325776</title>
<path fill="none" stroke="black" d="M1489.59,-165.9C1500.39,-165.9 1513.68,-165.9 1525.4,-165.9"/>
<polygon fill="black" stroke="black" points="1525.6,-169.4 1535.6,-165.9 1525.6,-162.4 1525.6,-169.4"/>
</g>
<!-- 4411343072 -->
<g id="node41" class="node">
<title>4411343072</title>
<ellipse fill="none" stroke="black" cx="1644" cy="-198.9" rx="18.72" ry="18.72"/>
<ellipse fill="none" stroke="black" cx="1644" cy="-198.9" rx="22.7" ry="22.7"/>
<text text-anchor="middle" x="1644" y="-195.2" font-family="Times,serif" font-size="14.00">@</text>
</g>
<!-- 4411325776&#45;&gt;4411343072 -->
<g id="edge44" class="edge">
<title>4411325776&#45;&gt;4411343072</title>
<path fill="none" stroke="black" d="M1573.81,-172.58C1585.01,-176.84 1599.83,-182.47 1612.88,-187.44"/>
<polygon fill="black" stroke="black" points="1611.83,-190.78 1622.42,-191.07 1614.32,-184.24 1611.83,-190.78"/>
</g>
<!-- 4411326096 -->
<g id="node43" class="node">
<title>4411326096</title>
<ellipse fill="none" stroke="black" cx="1732.74" cy="-198.9" rx="19.5" ry="19.5"/>
<text text-anchor="middle" x="1732.74" y="-195.2" font-family="Times,serif" font-size="14.00">15</text>
</g>
<!-- 4411343072&#45;&gt;4411326096 -->
<g id="edge45" class="edge">
<title>4411343072&#45;&gt;4411326096</title>
<path fill="none" stroke="black" d="M1666.89,-198.9C1677.8,-198.9 1691.14,-198.9 1702.88,-198.9"/>
<polygon fill="black" stroke="black" points="1703.09,-202.4 1713.09,-198.9 1703.09,-195.4 1703.09,-202.4"/>
</g>
<!-- 4411279312 -->
<g id="node42" class="node">
<title>4411279312</title>
<ellipse fill="none" stroke="black" cx="1555.25" cy="-232.9" rx="29.8" ry="29.8"/>
<text text-anchor="middle" x="1555.25" y="-229.2" font-family="Times,serif" font-size="14.00">None</text>
</g>
<!-- 4411279312&#45;&gt;4411343072 -->
<g id="edge43" class="edge">
<title>4411279312&#45;&gt;4411343072</title>
<path fill="none" stroke="black" d="M1583.22,-222.33C1592.6,-218.65 1603.17,-214.51 1612.79,-210.74"/>
<polygon fill="black" stroke="black" points="1614.35,-213.89 1622.38,-206.98 1611.8,-207.37 1614.35,-213.89"/>
</g>
<!-- 4411343360 -->
<g id="node44" class="node">
<title>4411343360</title>
<ellipse fill="none" stroke="black" cx="1820.64" cy="-231.9" rx="18" ry="18"/>
<ellipse fill="none" stroke="black" cx="1820.64" cy="-231.9" rx="22" ry="22"/>
<text text-anchor="middle" x="1820.64" y="-228.2" font-family="Times,serif" font-size="14.00">+</text>
</g>
<!-- 4411326096&#45;&gt;4411343360 -->
<g id="edge46" class="edge">
<title>4411326096&#45;&gt;4411343360</title>
<path fill="none" stroke="black" d="M1751.13,-205.58C1762.38,-209.9 1777.31,-215.63 1790.36,-220.65"/>
<polygon fill="black" stroke="black" points="1789.29,-223.99 1799.88,-224.31 1791.8,-217.45 1789.29,-223.99"/>
</g>
<!-- 4411347024 -->
<g id="node46" class="node">
<title>4411347024</title>
<ellipse fill="none" stroke="black" cx="1898.14" cy="-231.9" rx="19.5" ry="19.5"/>
<text text-anchor="middle" x="1898.14" y="-228.2" font-family="Times,serif" font-size="14.00">16</text>
</g>
<!-- 4411343360&#45;&gt;4411347024 -->
<g id="edge48" class="edge">
<title>4411343360&#45;&gt;4411347024</title>
<path fill="none" stroke="black" d="M1842.67,-231.9C1850.67,-231.9 1859.93,-231.9 1868.52,-231.9"/>
<polygon fill="black" stroke="black" points="1868.53,-235.4 1878.53,-231.9 1868.53,-228.4 1868.53,-235.4"/>
</g>
<!-- 4411279376 -->
<g id="node45" class="node">
<title>4411279376</title>
<ellipse fill="none" stroke="black" cx="1732.74" cy="-265.9" rx="29.8" ry="29.8"/>
<text text-anchor="middle" x="1732.74" y="-262.2" font-family="Times,serif" font-size="14.00">None</text>
</g>
<!-- 4411279376&#45;&gt;4411343360 -->
<g id="edge47" class="edge">
<title>4411279376&#45;&gt;4411343360</title>
<path fill="none" stroke="black" d="M1760.92,-255.14C1770.33,-251.41 1780.92,-247.22 1790.48,-243.44"/>
<polygon fill="black" stroke="black" points="1791.98,-246.61 1799.99,-239.68 1789.4,-240.1 1791.98,-246.61"/>
</g>
<!-- 4411343648 -->
<g id="node47" class="node">
<title>4411343648</title>
<ellipse fill="none" stroke="black" cx="1997.28" cy="-231.9" rx="39.78" ry="39.78"/>
<ellipse fill="none" stroke="black" cx="1997.28" cy="-231.9" rx="43.79" ry="43.79"/>
<text text-anchor="middle" x="1997.28" y="-228.2" font-family="Times,serif" font-size="14.00">softmax</text>
</g>
<!-- 4411347024&#45;&gt;4411343648 -->
<g id="edge49" class="edge">
<title>4411347024&#45;&gt;4411343648</title>
<path fill="none" stroke="black" d="M1917.87,-231.9C1925.24,-231.9 1934.11,-231.9 1943.19,-231.9"/>
<polygon fill="black" stroke="black" points="1943.46,-235.4 1953.46,-231.9 1943.46,-228.4 1943.46,-235.4"/>
</g>
<!-- 4411347280 -->
<g id="node48" class="node">
<title>4411347280</title>
<ellipse fill="none" stroke="black" cx="2096.43" cy="-231.9" rx="19.5" ry="19.5"/>
<text text-anchor="middle" x="2096.43" y="-228.2" font-family="Times,serif" font-size="14.00">17</text>
</g>
<!-- 4411343648&#45;&gt;4411347280 -->
<g id="edge50" class="edge">
<title>4411343648&#45;&gt;4411347280</title>
<path fill="none" stroke="black" d="M2041.18,-231.9C2049.7,-231.9 2058.46,-231.9 2066.39,-231.9"/>
<polygon fill="black" stroke="black" points="2066.59,-235.4 2076.59,-231.9 2066.59,-228.4 2066.59,-235.4"/>
</g>
</g>
</svg>
