<?xml version="1.0" encoding="UTF-8" standalone="no"?>
<!DOCTYPE svg PUBLIC "-//W3C//DTD SVG 1.1//EN"
 "http://www.w3.org/Graphics/SVG/1.1/DTD/svg11.dtd">
<!-- Generated by graphviz version 2.44.0 (20200408.0750)
 -->
<!-- Pages: 1 -->
<svg width="1266pt" height="379pt"
 viewBox="0.00 0.00 1265.86 378.79" xmlns="http://www.w3.org/2000/svg" xmlns:xlink="http://www.w3.org/1999/xlink">
<g id="graph0" class="graph" transform="scale(1 1) rotate(0) translate(4 374.79)">
<polygon fill="white" stroke="transparent" points="-4,4 -4,-374.79 1261.86,-374.79 1261.86,4 -4,4"/>
<text text-anchor="middle" x="628.93" y="-7.8" font-family="Times,serif" font-size="14.00">Computational Graph of rnn</text>
<!-- 4323516496 -->
<g id="node1" class="node">
<title>4323516496</title>
<ellipse fill="none" stroke="black" cx="118.64" cy="-91.9" rx="18.72" ry="18.72"/>
<ellipse fill="none" stroke="black" cx="118.64" cy="-91.9" rx="22.7" ry="22.7"/>
<text text-anchor="middle" x="118.64" y="-88.2" font-family="Times,serif" font-size="14.00">@</text>
</g>
<!-- 4352170064 -->
<g id="node4" class="node">
<title>4352170064</title>
<ellipse fill="none" stroke="black" cx="207.39" cy="-91.9" rx="18" ry="18"/>
<text text-anchor="middle" x="207.39" y="-88.2" font-family="Times,serif" font-size="14.00">0</text>
</g>
<!-- 4323516496&#45;&gt;4352170064 -->
<g id="edge3" class="edge">
<title>4323516496&#45;&gt;4352170064</title>
<path fill="none" stroke="black" d="M141.53,-91.9C152.95,-91.9 167.01,-91.9 179.13,-91.9"/>
<polygon fill="black" stroke="black" points="179.15,-95.4 189.15,-91.9 179.15,-88.4 179.15,-95.4"/>
</g>
<!-- 4323363920 -->
<g id="node2" class="node">
<title>4323363920</title>
<ellipse fill="none" stroke="black" cx="29.9" cy="-130.9" rx="29.8" ry="29.8"/>
<text text-anchor="middle" x="29.9" y="-127.2" font-family="Times,serif" font-size="14.00">None</text>
</g>
<!-- 4323363920&#45;&gt;4323516496 -->
<g id="edge1" class="edge">
<title>4323363920&#45;&gt;4323516496</title>
<path fill="none" stroke="black" d="M57.4,-118.98C67.14,-114.6 78.22,-109.62 88.21,-105.13"/>
<polygon fill="black" stroke="black" points="89.68,-108.31 97.36,-101.01 86.81,-101.92 89.68,-108.31"/>
</g>
<!-- 4352169744 -->
<g id="node3" class="node">
<title>4352169744</title>
<ellipse fill="none" stroke="red" cx="29.9" cy="-52.9" rx="29.8" ry="29.8"/>
<text text-anchor="middle" x="29.9" y="-49.2" font-family="Times,serif" font-size="14.00">None</text>
</g>
<!-- 4352169744&#45;&gt;4323516496 -->
<g id="edge2" class="edge">
<title>4352169744&#45;&gt;4323516496</title>
<path fill="none" stroke="black" d="M57.4,-64.81C67.14,-69.19 78.22,-74.17 88.21,-78.66"/>
<polygon fill="black" stroke="black" points="86.81,-81.87 97.36,-82.78 89.68,-75.49 86.81,-81.87"/>
</g>
<!-- 4322525552 -->
<g id="node5" class="node">
<title>4322525552</title>
<ellipse fill="none" stroke="black" cx="295.29" cy="-157.9" rx="18" ry="18"/>
<ellipse fill="none" stroke="black" cx="295.29" cy="-157.9" rx="22" ry="22"/>
<text text-anchor="middle" x="295.29" y="-154.2" font-family="Times,serif" font-size="14.00">+</text>
</g>
<!-- 4352170064&#45;&gt;4322525552 -->
<g id="edge4" class="edge">
<title>4352170064&#45;&gt;4322525552</title>
<path fill="none" stroke="black" d="M222.19,-102.5C234.83,-112.22 253.86,-126.84 269.19,-138.62"/>
<polygon fill="black" stroke="black" points="267.21,-141.5 277.27,-144.82 271.47,-135.95 267.21,-141.5"/>
</g>
<!-- 4352170448 -->
<g id="node7" class="node">
<title>4352170448</title>
<ellipse fill="none" stroke="black" cx="371.29" cy="-169.9" rx="18" ry="18"/>
<text text-anchor="middle" x="371.29" y="-166.2" font-family="Times,serif" font-size="14.00">1</text>
</g>
<!-- 4322525552&#45;&gt;4352170448 -->
<g id="edge6" class="edge">
<title>4322525552&#45;&gt;4352170448</title>
<path fill="none" stroke="black" d="M317.29,-161.3C325.43,-162.62 334.86,-164.15 343.48,-165.55"/>
<polygon fill="black" stroke="black" points="343.02,-169.02 353.45,-167.17 344.14,-162.11 343.02,-169.02"/>
</g>
<!-- 4323393680 -->
<g id="node6" class="node">
<title>4323393680</title>
<ellipse fill="none" stroke="black" cx="207.39" cy="-157.9" rx="29.8" ry="29.8"/>
<text text-anchor="middle" x="207.39" y="-154.2" font-family="Times,serif" font-size="14.00">None</text>
</g>
<!-- 4323393680&#45;&gt;4322525552 -->
<g id="edge5" class="edge">
<title>4323393680&#45;&gt;4322525552</title>
<path fill="none" stroke="black" d="M237.47,-157.9C245.68,-157.9 254.65,-157.9 262.99,-157.9"/>
<polygon fill="black" stroke="black" points="263.11,-161.4 273.11,-157.9 263.11,-154.4 263.11,-161.4"/>
</g>
<!-- 4323481216 -->
<g id="node15" class="node">
<title>4323481216</title>
<ellipse fill="none" stroke="black" cx="447.29" cy="-196.9" rx="18" ry="18"/>
<ellipse fill="none" stroke="black" cx="447.29" cy="-196.9" rx="22" ry="22"/>
<text text-anchor="middle" x="447.29" y="-193.2" font-family="Times,serif" font-size="14.00">+</text>
</g>
<!-- 4352170448&#45;&gt;4323481216 -->
<g id="edge13" class="edge">
<title>4352170448&#45;&gt;4323481216</title>
<path fill="none" stroke="black" d="M388.34,-175.76C396.61,-178.77 406.95,-182.55 416.61,-186.07"/>
<polygon fill="black" stroke="black" points="415.7,-189.46 426.3,-189.6 418.1,-182.89 415.7,-189.46"/>
</g>
<!-- 4323468352 -->
<g id="node8" class="node">
<title>4323468352</title>
<ellipse fill="none" stroke="black" cx="118.64" cy="-301.9" rx="18.72" ry="18.72"/>
<ellipse fill="none" stroke="black" cx="118.64" cy="-301.9" rx="22.7" ry="22.7"/>
<text text-anchor="middle" x="118.64" y="-298.2" font-family="Times,serif" font-size="14.00">@</text>
</g>
<!-- 4352170768 -->
<g id="node11" class="node">
<title>4352170768</title>
<ellipse fill="none" stroke="black" cx="207.39" cy="-301.9" rx="18" ry="18"/>
<text text-anchor="middle" x="207.39" y="-298.2" font-family="Times,serif" font-size="14.00">2</text>
</g>
<!-- 4323468352&#45;&gt;4352170768 -->
<g id="edge9" class="edge">
<title>4323468352&#45;&gt;4352170768</title>
<path fill="none" stroke="black" d="M141.53,-301.9C152.95,-301.9 167.01,-301.9 179.13,-301.9"/>
<polygon fill="black" stroke="black" points="179.15,-305.4 189.15,-301.9 179.15,-298.4 179.15,-305.4"/>
</g>
<!-- 4323364112 -->
<g id="node9" class="node">
<title>4323364112</title>
<ellipse fill="none" stroke="black" cx="29.9" cy="-340.9" rx="29.8" ry="29.8"/>
<text text-anchor="middle" x="29.9" y="-337.2" font-family="Times,serif" font-size="14.00">None</text>
</g>
<!-- 4323364112&#45;&gt;4323468352 -->
<g id="edge7" class="edge">
<title>4323364112&#45;&gt;4323468352</title>
<path fill="none" stroke="black" d="M57.4,-328.98C67.14,-324.6 78.22,-319.62 88.21,-315.13"/>
<polygon fill="black" stroke="black" points="89.68,-318.31 97.36,-311.01 86.81,-311.92 89.68,-318.31"/>
</g>
<!-- 4352169680 -->
<g id="node10" class="node">
<title>4352169680</title>
<ellipse fill="none" stroke="black" cx="29.9" cy="-262.9" rx="29.8" ry="29.8"/>
<text text-anchor="middle" x="29.9" y="-259.2" font-family="Times,serif" font-size="14.00">None</text>
</g>
<!-- 4352169680&#45;&gt;4323468352 -->
<g id="edge8" class="edge">
<title>4352169680&#45;&gt;4323468352</title>
<path fill="none" stroke="black" d="M57.4,-274.81C67.14,-279.19 78.22,-284.17 88.21,-288.66"/>
<polygon fill="black" stroke="black" points="86.81,-291.87 97.36,-292.78 89.68,-285.49 86.81,-291.87"/>
</g>
<!-- 4323470800 -->
<g id="node12" class="node">
<title>4323470800</title>
<ellipse fill="none" stroke="black" cx="295.29" cy="-235.9" rx="18" ry="18"/>
<ellipse fill="none" stroke="black" cx="295.29" cy="-235.9" rx="22" ry="22"/>
<text text-anchor="middle" x="295.29" y="-232.2" font-family="Times,serif" font-size="14.00">+</text>
</g>
<!-- 4352170768&#45;&gt;4323470800 -->
<g id="edge10" class="edge">
<title>4352170768&#45;&gt;4323470800</title>
<path fill="none" stroke="black" d="M222.19,-291.29C234.83,-281.58 253.86,-266.96 269.19,-255.18"/>
<polygon fill="black" stroke="black" points="271.47,-257.84 277.27,-248.97 267.21,-252.29 271.47,-257.84"/>
</g>
<!-- 4352171152 -->
<g id="node14" class="node">
<title>4352171152</title>
<ellipse fill="none" stroke="black" cx="371.29" cy="-229.9" rx="18" ry="18"/>
<text text-anchor="middle" x="371.29" y="-226.2" font-family="Times,serif" font-size="14.00">3</text>
</g>
<!-- 4323470800&#45;&gt;4352171152 -->
<g id="edge12" class="edge">
<title>4323470800&#45;&gt;4352171152</title>
<path fill="none" stroke="black" d="M317.29,-234.19C325.23,-233.55 334.37,-232.81 342.81,-232.13"/>
<polygon fill="black" stroke="black" points="343.29,-235.6 352.97,-231.3 342.72,-228.62 343.29,-235.6"/>
</g>
<!-- 4323498448 -->
<g id="node13" class="node">
<title>4323498448</title>
<ellipse fill="none" stroke="black" cx="207.39" cy="-235.9" rx="29.8" ry="29.8"/>
<text text-anchor="middle" x="207.39" y="-232.2" font-family="Times,serif" font-size="14.00">None</text>
</g>
<!-- 4323498448&#45;&gt;4323470800 -->
<g id="edge11" class="edge">
<title>4323498448&#45;&gt;4323470800</title>
<path fill="none" stroke="black" d="M237.47,-235.9C245.68,-235.9 254.65,-235.9 262.99,-235.9"/>
<polygon fill="black" stroke="black" points="263.11,-239.4 273.11,-235.9 263.11,-232.4 263.11,-239.4"/>
</g>
<!-- 4352171152&#45;&gt;4323481216 -->
<g id="edge14" class="edge">
<title>4352171152&#45;&gt;4323481216</title>
<path fill="none" stroke="black" d="M387.98,-222.9C396.6,-219.06 407.55,-214.17 417.63,-209.67"/>
<polygon fill="black" stroke="black" points="419.22,-212.8 426.93,-205.53 416.37,-206.41 419.22,-212.8"/>
</g>
<!-- 4352171536 -->
<g id="node16" class="node">
<title>4352171536</title>
<ellipse fill="none" stroke="black" cx="523.29" cy="-196.9" rx="18" ry="18"/>
<text text-anchor="middle" x="523.29" y="-193.2" font-family="Times,serif" font-size="14.00">4</text>
</g>
<!-- 4323481216&#45;&gt;4352171536 -->
<g id="edge15" class="edge">
<title>4323481216&#45;&gt;4352171536</title>
<path fill="none" stroke="black" d="M469.29,-196.9C477.23,-196.9 486.37,-196.9 494.81,-196.9"/>
<polygon fill="black" stroke="black" points="494.97,-200.4 504.97,-196.9 494.97,-193.4 494.97,-200.4"/>
</g>
<!-- 4323483520 -->
<g id="node17" class="node">
<title>4323483520</title>
<ellipse fill="none" stroke="black" cx="607.28" cy="-196.9" rx="26" ry="26"/>
<ellipse fill="none" stroke="black" cx="607.28" cy="-196.9" rx="30" ry="30"/>
<text text-anchor="middle" x="607.28" y="-193.2" font-family="Times,serif" font-size="14.00">tanh</text>
</g>
<!-- 4352171536&#45;&gt;4323483520 -->
<g id="edge16" class="edge">
<title>4352171536&#45;&gt;4323483520</title>
<path fill="none" stroke="black" d="M541.68,-196.9C549.04,-196.9 557.95,-196.9 566.77,-196.9"/>
<polygon fill="black" stroke="black" points="566.98,-200.4 576.98,-196.9 566.98,-193.4 566.98,-200.4"/>
</g>
<!-- 4352171856 -->
<g id="node18" class="node">
<title>4352171856</title>
<ellipse fill="none" stroke="black" cx="703.18" cy="-196.9" rx="18" ry="18"/>
<text text-anchor="middle" x="703.18" y="-193.2" font-family="Times,serif" font-size="14.00">5</text>
</g>
<!-- 4323483520&#45;&gt;4352171856 -->
<g id="edge17" class="edge">
<title>4323483520&#45;&gt;4352171856</title>
<path fill="none" stroke="black" d="M637.48,-196.9C649.43,-196.9 663.18,-196.9 674.93,-196.9"/>
<polygon fill="black" stroke="black" points="675.04,-200.4 685.04,-196.9 675.04,-193.4 675.04,-200.4"/>
</g>
<!-- 4323503424 -->
<g id="node19" class="node">
<title>4323503424</title>
<ellipse fill="none" stroke="black" cx="791.92" cy="-229.9" rx="18.72" ry="18.72"/>
<ellipse fill="none" stroke="black" cx="791.92" cy="-229.9" rx="22.7" ry="22.7"/>
<text text-anchor="middle" x="791.92" y="-226.2" font-family="Times,serif" font-size="14.00">@</text>
</g>
<!-- 4352171856&#45;&gt;4323503424 -->
<g id="edge19" class="edge">
<title>4352171856&#45;&gt;4323503424</title>
<path fill="none" stroke="black" d="M720.49,-203.1C731.87,-207.43 747.38,-213.33 760.94,-218.49"/>
<polygon fill="black" stroke="black" points="759.8,-221.8 770.39,-222.09 762.29,-215.26 759.8,-221.8"/>
</g>
<!-- 4352209104 -->
<g id="node21" class="node">
<title>4352209104</title>
<ellipse fill="none" stroke="black" cx="880.67" cy="-229.9" rx="18" ry="18"/>
<text text-anchor="middle" x="880.67" y="-226.2" font-family="Times,serif" font-size="14.00">6</text>
</g>
<!-- 4323503424&#45;&gt;4352209104 -->
<g id="edge20" class="edge">
<title>4323503424&#45;&gt;4352209104</title>
<path fill="none" stroke="black" d="M814.81,-229.9C826.23,-229.9 840.29,-229.9 852.41,-229.9"/>
<polygon fill="black" stroke="black" points="852.43,-233.4 862.43,-229.9 852.43,-226.4 852.43,-233.4"/>
</g>
<!-- 4350003408 -->
<g id="node20" class="node">
<title>4350003408</title>
<ellipse fill="none" stroke="black" cx="703.18" cy="-262.9" rx="29.8" ry="29.8"/>
<text text-anchor="middle" x="703.18" y="-259.2" font-family="Times,serif" font-size="14.00">None</text>
</g>
<!-- 4350003408&#45;&gt;4323503424 -->
<g id="edge18" class="edge">
<title>4350003408&#45;&gt;4323503424</title>
<path fill="none" stroke="black" d="M731.63,-252.46C740.91,-248.92 751.32,-244.96 760.8,-241.36"/>
<polygon fill="black" stroke="black" points="762.15,-244.59 770.26,-237.76 759.67,-238.04 762.15,-244.59"/>
</g>
<!-- 4352198560 -->
<g id="node22" class="node">
<title>4352198560</title>
<ellipse fill="none" stroke="black" cx="968.57" cy="-262.9" rx="18" ry="18"/>
<ellipse fill="none" stroke="black" cx="968.57" cy="-262.9" rx="22" ry="22"/>
<text text-anchor="middle" x="968.57" y="-259.2" font-family="Times,serif" font-size="14.00">+</text>
</g>
<!-- 4352209104&#45;&gt;4352198560 -->
<g id="edge21" class="edge">
<title>4352209104&#45;&gt;4352198560</title>
<path fill="none" stroke="black" d="M897.83,-236.1C909.25,-240.49 924.87,-246.49 938.44,-251.71"/>
<polygon fill="black" stroke="black" points="937.27,-255.01 947.86,-255.33 939.78,-248.47 937.27,-255.01"/>
</g>
<!-- 4352209488 -->
<g id="node24" class="node">
<title>4352209488</title>
<ellipse fill="none" stroke="black" cx="1044.57" cy="-262.9" rx="18" ry="18"/>
<text text-anchor="middle" x="1044.57" y="-259.2" font-family="Times,serif" font-size="14.00">7</text>
</g>
<!-- 4352198560&#45;&gt;4352209488 -->
<g id="edge23" class="edge">
<title>4352198560&#45;&gt;4352209488</title>
<path fill="none" stroke="black" d="M990.57,-262.9C998.51,-262.9 1007.65,-262.9 1016.09,-262.9"/>
<polygon fill="black" stroke="black" points="1016.25,-266.4 1026.25,-262.9 1016.25,-259.4 1016.25,-266.4"/>
</g>
<!-- 4352169616 -->
<g id="node23" class="node">
<title>4352169616</title>
<ellipse fill="none" stroke="black" cx="880.67" cy="-295.9" rx="29.8" ry="29.8"/>
<text text-anchor="middle" x="880.67" y="-292.2" font-family="Times,serif" font-size="14.00">None</text>
</g>
<!-- 4352169616&#45;&gt;4352198560 -->
<g id="edge22" class="edge">
<title>4352169616&#45;&gt;4352198560</title>
<path fill="none" stroke="black" d="M908.85,-285.46C918.19,-281.87 928.68,-277.84 938.19,-274.18"/>
<polygon fill="black" stroke="black" points="939.57,-277.4 947.64,-270.55 937.05,-270.87 939.57,-277.4"/>
</g>
<!-- 4352198848 -->
<g id="node25" class="node">
<title>4352198848</title>
<ellipse fill="none" stroke="black" cx="1142.21" cy="-262.9" rx="39.78" ry="39.78"/>
<ellipse fill="none" stroke="black" cx="1142.21" cy="-262.9" rx="43.79" ry="43.79"/>
<text text-anchor="middle" x="1142.21" y="-259.2" font-family="Times,serif" font-size="14.00">softmax</text>
</g>
<!-- 4352209488&#45;&gt;4352198848 -->
<g id="edge24" class="edge">
<title>4352209488&#45;&gt;4352198848</title>
<path fill="none" stroke="black" d="M1062.67,-262.9C1070.01,-262.9 1079.02,-262.9 1088.29,-262.9"/>
<polygon fill="black" stroke="black" points="1088.39,-266.4 1098.39,-262.9 1088.39,-259.4 1088.39,-266.4"/>
</g>
<!-- 4352209744 -->
<g id="node26" class="node">
<title>4352209744</title>
<ellipse fill="none" stroke="black" cx="1239.86" cy="-262.9" rx="18" ry="18"/>
<text text-anchor="middle" x="1239.86" y="-259.2" font-family="Times,serif" font-size="14.00">8</text>
</g>
<!-- 4352198848&#45;&gt;4352209744 -->
<g id="edge25" class="edge">
<title>4352198848&#45;&gt;4352209744</title>
<path fill="none" stroke="black" d="M1186,-262.9C1194.62,-262.9 1203.46,-262.9 1211.38,-262.9"/>
<polygon fill="black" stroke="black" points="1211.51,-266.4 1221.51,-262.9 1211.51,-259.4 1211.51,-266.4"/>
</g>
</g>
</svg>
